<?xml version="1.0" encoding="UTF-8"?>
<svg width="42px" height="42px" viewBox="0 0 42 42" version="1.1" xmlns="http://www.w3.org/2000/svg" xmlns:xlink="http://www.w3.org/1999/xlink">
    <!-- Generator: Sketch 49.3 (51167) - http://www.bohemiancoding.com/sketch -->
    <title>settings</title>
    <desc>Created with Sketch.</desc>
    <defs></defs>
    <g id="Page-1" stroke="none" stroke-width="1" fill="none" fill-rule="evenodd" stroke-linecap="round" stroke-linejoin="round">
        <g id="landing-page-alt" transform="translate(-239.000000, -845.000000)" stroke="#000000" stroke-width="2">
            <g id="detail" transform="translate(240.000000, 842.000000)">
                <g id="how-it-works">
                    <g id="settings" transform="translate(0.000000, 4.000000)">
                        <circle id="Oval" cx="20" cy="20" r="5.55555556"></circle>
                        <path d="M33.4545455,25.4545455 C32.9593701,26.5765274 33.1969711,27.8869332 34.0545455,28.7636364 L34.1636364,28.8727273 C34.846462,29.5547937 35.2301333,30.48033 35.2301333,31.4454545 C35.2301333,32.4105791 34.846462,33.3361154 34.1636364,34.0181818 C33.48157,34.7010074 32.5560336,35.0846788 31.5909091,35.0846788 C30.6257846,35.0846788 29.7002482,34.7010074 29.0181818,34.0181818 L28.9090909,33.9090909 C28.0323878,33.0515166 26.7219819,32.8139155 25.6,33.3090909 C24.5009625,33.7801242 23.7865871,34.8588311 23.7818182,36.0545455 L23.7818182,36.3636364 C23.7818182,38.3719445 22.1537627,40 20.1454545,40 C18.1371464,40 16.5090909,38.3719445 16.5090909,36.3636364 L16.5090909,36.2 C16.4802847,34.9684924 15.701585,33.8797549 14.5454545,33.4545455 C13.4234726,32.9593701 12.1130668,33.1969711 11.2363636,34.0545455 L11.1272727,34.1636364 C10.4452063,34.846462 9.51966999,35.2301333 8.55454545,35.2301333 C7.58942092,35.2301333 6.66388457,34.846462 5.98181818,34.1636364 C5.29899257,33.48157 4.91532125,32.5560336 4.91532125,31.5909091 C4.91532125,30.6257846 5.29899257,29.7002482 5.98181818,29.0181818 L6.09090909,28.9090909 C6.94848341,28.0323878 7.18608447,26.7219819 6.69090909,25.6 C6.21987585,24.5009625 5.14116895,23.7865871 3.94545455,23.7818182 L3.63636364,23.7818182 C1.62805546,23.7818182 4.03717464e-16,22.1537627 0,20.1454545 C-2.01858732e-16,18.1371464 1.62805546,16.5090909 3.63636364,16.5090909 L3.8,16.5090909 C5.0315076,16.4802847 6.12024514,15.701585 6.54545455,14.5454545 C7.04062992,13.4234726 6.80302887,12.1130668 5.94545455,11.2363636 L5.83636364,11.1272727 C5.15353803,10.4452063 4.7698667,9.51966999 4.7698667,8.55454545 C4.7698667,7.58942092 5.15353803,6.66388457 5.83636364,5.98181818 C6.51843003,5.29899257 7.44396637,4.91532125 8.40909091,4.91532125 C9.37421545,4.91532125 10.2997518,5.29899257 10.9818182,5.98181818 L11.0909091,6.09090909 C11.9676122,6.94848341 13.2780181,7.18608447 14.4,6.69090909 L14.5454545,6.69090909 C15.644492,6.21987585 16.3588674,5.14116895 16.3636364,3.94545455 L16.3636364,3.63636364 C16.3636364,1.62805546 17.9916918,4.03717464e-16 20,0 C22.0083082,0 23.6363636,1.62805546 23.6363636,3.63636364 L23.6363636,3.8 C23.6411326,4.9957144 24.355508,6.0744213 25.4545455,6.54545455 C26.5765274,7.04062992 27.8869332,6.80302887 28.7636364,5.94545455 L28.8727273,5.83636364 C29.5547937,5.15353803 30.48033,4.7698667 31.4454545,4.7698667 C32.4105791,4.7698667 33.3361154,5.15353803 34.0181818,5.83636364 C34.7010074,6.51843003 35.0846788,7.44396637 35.0846788,8.40909091 C35.0846788,9.37421545 34.7010074,10.2997518 34.0181818,10.9818182 L33.9090909,11.0909091 C33.0515166,11.9676122 32.8139155,13.2780181 33.3090909,14.4 L33.3090909,14.5454545 C33.7801242,15.644492 34.8588311,16.3588674 36.0545455,16.3636364 L36.3636364,16.3636364 C38.3719445,16.3636364 40,17.9916918 40,20 C40,22.0083082 38.3719445,23.6363636 36.3636364,23.6363636 L36.2,23.6363636 C35.0042856,23.6411326 33.9255787,24.355508 33.4545455,25.4545455 Z" id="Shape"></path>
                    </g>
                </g>
            </g>
        </g>
    </g>
</svg>